<mxfile host="app.diagrams.net" modified="2020-09-30T00:47:39.282Z" agent="5.0 (Windows NT 10.0; Win64; x64) AppleWebKit/537.36 (KHTML, like Gecko) Chrome/85.0.4183.121 Safari/537.36" etag="BFqKBJcEcQQ0w_uIQmw9" version="13.7.6" type="github">
  <diagram id="WvPFHCAgB70aHGsb4ThS" name="Page-1">
    <mxGraphModel dx="1038" dy="580" grid="1" gridSize="10" guides="1" tooltips="1" connect="1" arrows="1" fold="1" page="1" pageScale="1" pageWidth="827" pageHeight="1169" math="0" shadow="0">
      <root>
        <mxCell id="0" />
        <mxCell id="1" parent="0" />
        <mxCell id="4lA-2BI5CEmKTuSo1aYV-1" value="&lt;p style=&quot;margin: 0px ; margin-top: 4px ; text-align: center&quot;&gt;&lt;span style=&quot;background-color: rgb(126 , 166 , 224)&quot;&gt;&lt;b&gt;Pessoa&lt;/b&gt;&lt;br&gt;&lt;/span&gt;&lt;br&gt;&lt;/p&gt;&lt;hr&gt;&lt;p style=&quot;margin: 0px ; margin-left: 8px ; text-align: left&quot;&gt;-Nome&lt;br&gt;-EndereÃ§o&lt;/p&gt;&lt;p style=&quot;margin: 0px ; margin-left: 8px ; text-align: left&quot;&gt;-Telefone&lt;/p&gt;&lt;hr&gt;+setEndereco()&lt;br&gt;+getEndereco()" style="shape=rect;html=1;overflow=fill;whiteSpace=wrap;fillColor=#dae8fc;strokeColor=#7EA6E0;" vertex="1" parent="1">
          <mxGeometry x="294" y="30" width="120" height="140" as="geometry" />
        </mxCell>
        <mxCell id="4lA-2BI5CEmKTuSo1aYV-12" value="&lt;p style=&quot;margin: 0px ; margin-top: 4px ; text-align: center&quot;&gt;&lt;span style=&quot;background-color: rgb(126 , 166 , 224)&quot;&gt;&lt;b&gt;Colaborador&lt;/b&gt;&lt;/span&gt;&lt;/p&gt;&lt;p style=&quot;margin: 0px ; margin-top: 4px ; text-align: center&quot;&gt;&lt;br&gt;&lt;/p&gt;&lt;hr&gt;-DataContratacao&lt;br&gt;-Salario&lt;hr&gt;-setSalario()&lt;br&gt;-getSalario()" style="shape=rect;html=1;overflow=fill;whiteSpace=wrap;strokeColor=#6c8ebf;fillColor=#dae8fc;" vertex="1" parent="1">
          <mxGeometry x="190" y="270" width="120" height="140" as="geometry" />
        </mxCell>
        <mxCell id="4lA-2BI5CEmKTuSo1aYV-13" value="&lt;p style=&quot;margin: 0px ; margin-top: 4px ; text-align: center&quot;&gt;&lt;b style=&quot;background-color: rgb(126 , 166 , 224)&quot;&gt;Cliente&lt;/b&gt;&lt;/p&gt;&lt;hr&gt;&lt;p style=&quot;margin: 0px ; margin-left: 8px ; text-align: left&quot;&gt;-DataContratacao&lt;/p&gt;&lt;p style=&quot;margin: 0px ; margin-left: 8px ; text-align: left&quot;&gt;-UltimoContato&lt;/p&gt;&lt;p style=&quot;margin: 0px ; margin-left: 8px ; text-align: left&quot;&gt;-UltimaCompra&lt;/p&gt;&lt;hr&gt;-setultimaCompra()&lt;br&gt;-getultimacompra()" style="shape=rect;html=1;overflow=fill;whiteSpace=wrap;strokeColor=#6c8ebf;fillColor=#dae8fc;" vertex="1" parent="1">
          <mxGeometry x="400" y="270" width="120" height="140" as="geometry" />
        </mxCell>
        <mxCell id="4lA-2BI5CEmKTuSo1aYV-14" value="" style="endArrow=block;html=1;endFill=0;entryX=0.25;entryY=1;entryDx=0;entryDy=0;" edge="1" parent="1" target="4lA-2BI5CEmKTuSo1aYV-1">
          <mxGeometry width="50" height="50" relative="1" as="geometry">
            <mxPoint x="260" y="270" as="sourcePoint" />
            <mxPoint x="310" y="220" as="targetPoint" />
          </mxGeometry>
        </mxCell>
        <mxCell id="4lA-2BI5CEmKTuSo1aYV-15" value="" style="endArrow=block;html=1;entryX=0.687;entryY=1.007;entryDx=0;entryDy=0;entryPerimeter=0;exitX=0.09;exitY=-0.016;exitDx=0;exitDy=0;exitPerimeter=0;endFill=0;" edge="1" parent="1" source="4lA-2BI5CEmKTuSo1aYV-13" target="4lA-2BI5CEmKTuSo1aYV-1">
          <mxGeometry width="50" height="50" relative="1" as="geometry">
            <mxPoint x="390" y="320" as="sourcePoint" />
            <mxPoint x="440" y="270" as="targetPoint" />
            <Array as="points" />
          </mxGeometry>
        </mxCell>
      </root>
    </mxGraphModel>
  </diagram>
</mxfile>
